<svg width="487" height="162" viewBox="0 0 487 162" fill="none" xmlns="http://www.w3.org/2000/svg">
<rect width="487" height="162" fill="#F3F3F3"/>
<g filter="url(#filter0_d)">
<path d="M431.976 92H440.544V73.712H447.528L457.608 92H467.184L456.024 72.416C461.64 70.472 465.312 66.08 465.312 58.952C465.312 48.368 457.752 44.912 447.888 44.912H431.976V92ZM440.544 66.872V51.752H447.024C453.432 51.752 456.888 53.624 456.888 58.952C456.888 64.208 453.432 66.872 447.024 66.872H440.544Z" fill="#424242"/>
</g>
<g filter="url(#filter1_d)">
<path d="M375.546 74.4451C374.319 75.5738 373.888 76.3766 371.664 78.3441C368.582 81.0836 366.508 82.4021 365.965 82.8048C364.147 84.131 357.874 88.7046 351.11 86.8679C348.606 86.1907 346.966 84.8851 345.939 84.0771C344.612 83.0305 340.851 79.9729 339.734 74.4451C338.698 69.3149 340.601 65.2543 341.144 64.1436C341.743 62.9175 343.673 59.1058 348.008 57.0178C350.011 56.0774 352.198 55.616 354.401 55.6685C362.194 55.6326 367.976 61.0321 369.724 62.7944L373.202 59.6162C372.553 58.7569 365.144 49.248 354.118 50.0843C348.341 50.5203 344.149 53.6036 343.212 54.3193C340.361 56.4957 338.097 59.3784 336.632 62.6969C332.903 71.4388 336.672 79.6266 337.102 80.5142C338.137 82.6612 341.189 88.0864 347.537 90.6232C351.569 92.2367 355.077 91.9417 356.75 91.7801C364.012 91.0824 368.962 86.8833 372.916 83.5359C375.418 81.4179 376.911 80.1804 378.926 77.5745L375.546 74.4451Z" fill="url(#paint0_linear)"/>
<path d="M387.44 66.4167C388.943 64.6211 388.497 64.9422 390.07 63.3386C391.675 61.7002 393.222 60.4255 395.065 59.0745C396.886 57.7535 403.171 53.1901 409.93 55.0498C412.421 55.7347 414.069 57.0455 415.093 57.8561C416.418 58.9052 420.172 61.9731 421.273 67.5034C422.3 72.6491 420.384 76.6917 419.838 77.8024C419.237 79.0259 417.297 82.8326 412.957 84.9103C410.951 85.8444 408.764 86.2996 406.562 86.2416C398.766 86.2416 392.999 80.842 391.257 79.0747L387.768 82.2426C388.414 83.1019 395.801 92.6313 406.83 91.8284C412.609 91.4051 416.806 88.3347 417.745 87.6191C420.603 85.4524 422.875 82.5753 424.346 79.2593C428.102 70.538 424.346 62.3296 423.923 61.4421C422.893 59.2925 419.854 53.8596 413.513 51.3048C409.484 49.6811 405.978 49.9684 404.303 50.1248C397.041 50.802 392.08 54.9857 388.116 58.3332C385.609 60.4441 385.187 61.03 382.808 63.566L387.44 66.4167Z" fill="url(#paint1_linear)"/>
<path d="M373.893 69.4776C374.135 69.2049 374.116 68.7822 373.849 68.5339L371.632 66.465L371.807 66.2674C372.387 65.6155 372.34 64.5963 371.704 64.0027L372.055 63.6075C372.842 64.3416 372.952 65.5506 372.357 66.4189L376.515 70.2977C376.643 70.417 376.812 70.4793 376.985 70.4711C377.157 70.4628 377.32 70.3845 377.436 70.2535C377.553 70.1226 377.614 69.9496 377.605 69.7726C377.597 69.5956 377.521 69.4292 377.393 69.3099L374.404 66.5213L374.755 66.1262L378.516 69.6344C378.644 69.7537 378.813 69.816 378.985 69.8078C379.158 69.7995 379.321 69.7213 379.437 69.5903C379.554 69.4593 379.614 69.2863 379.606 69.1093C379.598 68.9323 379.522 68.7659 379.394 68.6466L375.633 65.1384L375.984 64.7433L379.167 67.7118C379.295 67.8311 379.463 67.8934 379.636 67.8851C379.809 67.8769 379.971 67.7986 380.088 67.6676C380.204 67.5367 380.265 67.3636 380.257 67.1867C380.249 67.0097 380.173 66.8433 380.045 66.724L376.477 63.3957L376.828 63.0006L379.239 65.2494C379.367 65.3687 379.536 65.4311 379.708 65.4228C379.881 65.4145 380.044 65.3363 380.16 65.2053C380.277 65.0743 380.337 64.9013 380.329 64.7243C380.321 64.5474 380.245 64.3809 380.117 64.2616L376.26 60.6635C374.501 59.0228 371.782 59.153 370.18 60.9548C368.578 62.7565 368.705 65.5422 370.464 67.1829L372.971 69.5217C373.237 69.77 373.65 69.7502 373.893 69.4776Z" fill="#29A5A9"/>
<path d="M386.917 72.5157C386.658 72.7724 386.652 73.1956 386.903 73.4602L388.991 75.6659L388.804 75.8519C388.186 76.4659 388.171 77.486 388.77 78.1189L388.396 78.491C387.655 77.7085 387.618 76.4948 388.264 75.6659L384.349 71.5308C384.228 71.4036 384.064 71.3307 383.891 71.328C383.718 71.3253 383.551 71.393 383.427 71.5164C383.303 71.6397 383.231 71.8086 383.229 71.9857C383.226 72.1628 383.292 72.3338 383.413 72.461L386.228 75.4338L385.853 75.8059L382.312 72.0659C382.191 71.9387 382.027 71.8657 381.854 71.863C381.681 71.8603 381.514 71.9281 381.39 72.0515C381.266 72.1748 381.194 72.3436 381.192 72.5208C381.189 72.6979 381.255 72.8689 381.376 72.9961L384.917 76.7361L384.543 77.1081L381.546 73.9435C381.426 73.8163 381.261 73.7434 381.088 73.7407C380.915 73.738 380.748 73.8058 380.624 73.9291C380.5 74.0525 380.428 74.2213 380.426 74.3984C380.423 74.5756 380.489 74.7465 380.61 74.8737L383.97 78.4219L383.595 78.794L381.325 76.3965C381.205 76.2694 381.04 76.1964 380.867 76.1937C380.694 76.191 380.527 76.2588 380.403 76.3822C380.279 76.5055 380.208 76.6743 380.205 76.8515C380.202 77.0286 380.268 77.1996 380.389 77.3267L384.021 81.1626C385.677 82.9118 388.4 82.9543 390.107 81.2576C391.815 79.561 391.856 76.7726 390.2 75.0234L387.839 72.5301C387.588 72.2654 387.175 72.2589 386.917 72.5157Z" fill="#29A5A9"/>
</g>
<g filter="url(#filter2_d)">
<path d="M33.264 92.864C43.56 92.864 47.952 85.736 47.952 76.88V44.912H39.384V76.16C39.384 83 37.152 85.448 32.544 85.448C29.52 85.448 27 83.936 25.344 80.912L19.8 84.656C22.68 90.272 27.072 92.864 33.264 92.864ZM77.4068 92.864C88.4228 92.864 95.2628 86.744 95.2628 71.264V44.912H86.9828V71.912C86.9828 82.064 83.0948 85.448 77.4068 85.448C71.7188 85.448 67.9748 82.064 67.9748 71.912V44.912H59.4068V71.264C59.4068 86.744 66.3908 92.864 77.4068 92.864ZM106.945 92H134.953V84.8H115.513V44.912H106.945V92ZM143.156 92H151.724V44.912H143.156V92ZM163.617 92H192.777V84.8H172.185V71.12H189.033V63.92H172.185V52.112H192.057V44.912H163.617V92ZM211.861 92H220.429V52.112H233.965V44.912H198.325V52.112H211.861V92ZM248.641 67.088C250.153 62.12 251.521 56.792 252.745 51.608H253.033C254.401 56.72 255.769 62.12 257.281 67.088L258.865 72.704H247.057L248.641 67.088ZM232.801 92H241.513L245.113 79.4H260.737L264.337 92H273.409L258.145 44.912H248.065L232.801 92ZM293.624 92H301.616V71.408C301.616 66.152 301.04 60.32 300.536 55.424H300.824C302.336 59.168 303.92 62.912 305.648 66.08L319.76 92H328.904V44.912H320.912V65.504C320.912 70.688 321.488 76.448 321.992 81.488H321.704C320.192 77.744 318.608 74 316.88 70.832L302.768 44.912H293.624V92Z" fill="#424242"/>
</g>
<g filter="url(#filter3_i)">
<path d="M49.4141 126.863C49.4141 132.703 52.7148 136.359 57.9961 136.359C60.5352 136.359 62.7188 135.598 64.293 134.023L63.4805 132.398C61.7031 133.922 60.0781 134.531 57.9961 134.531C53.9336 134.531 51.5977 131.738 51.5977 126.863C51.5977 121.988 53.9336 119.297 57.9961 119.297C60.0781 119.297 61.7031 119.855 63.4805 121.43L64.293 119.754C62.7188 118.23 60.5352 117.418 57.9961 117.418C52.7148 117.418 49.4141 121.074 49.4141 126.863ZM67.1875 129.555C67.1875 133.668 69.625 136.359 73.332 136.359C77.0898 136.359 79.5273 133.668 79.5273 129.555C79.5273 125.441 77.0898 122.75 73.332 122.75C69.625 122.75 67.1875 125.441 67.1875 129.555ZM77.3945 129.555C77.3945 132.855 75.9727 134.582 73.332 134.582C70.7422 134.582 69.3203 132.855 69.3203 129.555C69.3203 126.355 70.793 124.527 73.332 124.527C75.8711 124.527 77.3945 126.355 77.3945 129.555ZM92.2734 125.34C91.4609 123.715 89.8867 122.75 87.8555 122.75C84.4023 122.75 82.0664 125.543 82.0664 129.605C82.0664 133.668 84.3516 136.359 87.8555 136.359C89.8867 136.359 91.5117 135.445 92.2734 133.77V136.156H94.3555V123.055H92.2734V125.34ZM92.2734 129.555C92.2734 132.754 90.8516 134.582 88.2617 134.582C85.6719 134.582 84.1992 132.805 84.1992 129.605C84.1992 126.406 85.6719 124.527 88.2617 124.527C90.8516 124.527 92.2734 126.305 92.2734 129.555ZM96.8945 129.605C96.8945 133.668 99.332 136.359 103.141 136.359C104.918 136.359 106.746 135.699 107.863 134.633L107.152 133.109C105.832 134.125 104.613 134.582 103.344 134.582C100.652 134.582 99.0781 132.754 99.0781 129.605C99.0781 126.406 100.652 124.527 103.344 124.527C104.613 124.527 105.832 124.984 107.152 126.051L107.863 124.477C106.797 123.41 105.02 122.75 103.242 122.75C99.3828 122.75 96.8945 125.543 96.8945 129.605ZM122.387 127.93C122.387 124.477 120.812 122.75 117.664 122.75C115.734 122.75 114.109 123.613 113.246 125.188V117.012H111.164V136.156H113.246V128.691C113.246 126.152 114.871 124.527 117.258 124.527C119.34 124.527 120.305 125.645 120.305 128.031V136.156H122.387V127.93ZM142.478 120.15C143.865 120.15 144.957 120.505 145.754 121.216C146.569 121.909 146.976 122.889 146.976 124.154C146.976 125.246 146.621 126.173 145.91 126.936C145.217 127.699 144.333 128.392 143.258 129.016L148.276 133.852C148.727 133.315 149.091 132.699 149.368 132.006C149.663 131.295 149.906 130.533 150.096 129.718H152.41C152.133 130.827 151.786 131.859 151.37 132.812C150.954 133.765 150.417 134.597 149.758 135.308L153.554 139H150.46L148.198 136.816C147.384 137.544 146.474 138.133 145.468 138.584C144.463 139.035 143.241 139.26 141.802 139.26C140.017 139.26 138.596 138.818 137.538 137.934C136.481 137.05 135.952 135.793 135.952 134.164C135.952 132.829 136.308 131.763 137.018 130.966C137.746 130.151 138.726 129.397 139.956 128.704C139.402 128.08 138.882 127.413 138.396 126.702C137.928 125.991 137.694 125.159 137.694 124.206C137.694 122.923 138.119 121.927 138.968 121.216C139.835 120.505 141.005 120.15 142.478 120.15ZM142.4 122.022C141.672 122.022 141.074 122.213 140.606 122.594C140.156 122.975 139.93 123.504 139.93 124.18C139.93 124.804 140.095 125.385 140.424 125.922C140.754 126.442 141.23 127.023 141.854 127.664C142.877 127.075 143.605 126.52 144.038 126C144.489 125.463 144.714 124.847 144.714 124.154C144.714 123.53 144.506 123.019 144.09 122.62C143.674 122.221 143.111 122.022 142.4 122.022ZM141.334 130.134C140.398 130.689 139.662 131.252 139.124 131.824C138.604 132.396 138.344 133.15 138.344 134.086C138.344 135.039 138.665 135.802 139.306 136.374C139.948 136.946 140.806 137.232 141.88 137.232C142.99 137.232 143.943 137.05 144.74 136.686C145.538 136.322 146.205 135.889 146.742 135.386L141.334 130.134ZM174.234 117.621H172.355L164.23 136.156H166.465L168.496 131.383H178.195L180.227 136.156H182.41L174.234 117.621ZM177.434 129.605H169.258L173.32 120.109L177.434 129.605ZM184.137 129.605C184.137 133.668 186.574 136.359 190.383 136.359C192.16 136.359 193.988 135.699 195.105 134.633L194.395 133.109C193.074 134.125 191.855 134.582 190.586 134.582C187.895 134.582 186.32 132.754 186.32 129.605C186.32 126.406 187.895 124.527 190.586 124.527C191.855 124.527 193.074 124.984 194.395 126.051L195.105 124.477C194.039 123.41 192.262 122.75 190.484 122.75C186.625 122.75 184.137 125.543 184.137 129.605ZM197.645 129.605C197.645 133.668 200.082 136.359 203.891 136.359C205.668 136.359 207.496 135.699 208.613 134.633L207.902 133.109C206.582 134.125 205.363 134.582 204.094 134.582C201.402 134.582 199.828 132.754 199.828 129.605C199.828 126.406 201.402 124.527 204.094 124.527C205.363 124.527 206.582 124.984 207.902 126.051L208.613 124.477C207.547 123.41 205.77 122.75 203.992 122.75C200.133 122.75 197.645 125.543 197.645 129.605ZM211.152 129.555C211.152 133.668 213.59 136.359 217.297 136.359C221.055 136.359 223.492 133.668 223.492 129.555C223.492 125.441 221.055 122.75 217.297 122.75C213.59 122.75 211.152 125.441 211.152 129.555ZM221.359 129.555C221.359 132.855 219.938 134.582 217.297 134.582C214.707 134.582 213.285 132.855 213.285 129.555C213.285 126.355 214.758 124.527 217.297 124.527C219.836 124.527 221.359 126.355 221.359 129.555ZM235.629 130.469C235.629 132.957 234.055 134.582 231.77 134.582C229.789 134.582 228.824 133.516 228.824 131.129V123.055H226.691V131.18C226.691 134.582 228.316 136.359 231.414 136.359C233.293 136.359 234.867 135.496 235.68 133.871V136.156H237.711V123.055H235.629V130.469ZM252.895 127.93C252.895 124.477 251.32 122.75 248.172 122.75C246.141 122.75 244.465 123.715 243.652 125.441L243.449 123.055H241.469C241.57 124.172 241.672 125.391 241.672 126.762V136.156H243.754V128.691C243.754 126.152 245.379 124.527 247.766 124.527C249.848 124.527 250.812 125.645 250.812 128.031V136.156H252.895V127.93ZM263.305 123.055H259.547V118.992L257.465 119.703V123.055H254.926V124.73H257.465V132.195C257.465 134.887 258.938 136.359 261.426 136.359C262.086 136.359 262.695 136.258 263.254 136.055V134.277C262.797 134.43 262.34 134.531 261.832 134.531C260.41 134.531 259.547 133.82 259.547 131.891V124.73H263.305V123.055ZM274.984 125.34C274.172 123.715 272.598 122.75 270.566 122.75C267.113 122.75 264.777 125.543 264.777 129.605C264.777 133.668 267.062 136.359 270.566 136.359C272.598 136.359 274.223 135.445 274.984 133.77V136.156H277.066V123.055H274.984V125.34ZM274.984 129.555C274.984 132.754 273.562 134.582 270.973 134.582C268.383 134.582 266.91 132.805 266.91 129.605C266.91 126.406 268.383 124.527 270.973 124.527C273.562 124.527 274.984 126.305 274.984 129.555ZM292.707 129.504C292.707 125.441 290.371 122.75 286.867 122.75C284.836 122.75 283.211 123.715 282.449 125.391V117.012H280.367V136.156H282.449V133.719C283.262 135.395 284.836 136.359 286.867 136.359C290.371 136.359 292.707 133.566 292.707 129.504ZM290.523 129.504C290.523 132.703 289 134.582 286.512 134.582C283.922 134.582 282.449 132.754 282.449 129.555C282.449 126.305 283.922 124.527 286.512 124.527C289.051 124.527 290.523 126.355 290.523 129.504ZM299.105 119.906V117.52H296.566V119.906H299.105ZM298.852 123.055H296.77V136.156H298.852V123.055ZM305.047 117.012H302.965V136.156H305.047V117.012ZM311.445 119.906V117.52H308.906V119.906H311.445ZM311.191 123.055H309.109V136.156H311.191V123.055ZM321.855 123.055H318.098V118.992L316.016 119.703V123.055H313.477V124.73H316.016V132.195C316.016 134.887 317.488 136.359 319.977 136.359C320.637 136.359 321.246 136.258 321.805 136.055V134.277C321.348 134.43 320.891 134.531 320.383 134.531C318.961 134.531 318.098 133.82 318.098 131.891V124.73H321.855V123.055ZM329.016 133.871L324.598 123.055H322.363L327.898 136.004L327.391 137.172C326.984 138.137 326.426 138.848 325.816 139.305C325.156 139.762 324.242 140.117 323.023 140.422L323.48 142.047C326.273 141.539 328.203 140.32 329.473 137.375L335.566 123.055H333.484L329.016 133.871ZM350.445 136.156V128.031H355.676C359.484 128.031 361.77 126.051 361.77 122.801C361.77 119.602 359.535 117.621 355.676 117.621H348.312V136.156H350.445ZM350.445 119.398H355.523C358.266 119.398 359.637 120.617 359.637 122.801C359.637 125.035 358.266 126.254 355.523 126.254H350.445V119.398ZM375.531 125.34C374.719 123.715 373.145 122.75 371.113 122.75C367.66 122.75 365.324 125.543 365.324 129.605C365.324 133.668 367.609 136.359 371.113 136.359C373.145 136.359 374.77 135.445 375.531 133.77V136.156H377.613V123.055H375.531V125.34ZM375.531 129.555C375.531 132.754 374.109 134.582 371.52 134.582C368.93 134.582 367.457 132.805 367.457 129.605C367.457 126.406 368.93 124.527 371.52 124.527C374.109 124.527 375.531 126.305 375.531 129.555ZM388.176 122.902C387.82 122.801 387.414 122.75 387.008 122.75C385.129 122.75 383.555 123.715 382.895 125.492L382.691 123.055H380.711C380.812 124.172 380.914 125.391 380.914 126.762V136.156H382.996V128.691C382.996 127.574 383.352 126.609 383.91 125.848C384.57 125.035 385.484 124.629 386.754 124.629C387.262 124.629 387.77 124.73 388.125 124.832L388.176 122.902ZM398.586 123.055H394.828V118.992L392.746 119.703V123.055H390.207V124.73H392.746V132.195C392.746 134.887 394.219 136.359 396.707 136.359C397.367 136.359 397.977 136.258 398.535 136.055V134.277C398.078 134.43 397.621 134.531 397.113 134.531C395.691 134.531 394.828 133.82 394.828 131.891V124.73H398.586V123.055ZM412.043 127.93C412.043 124.477 410.469 122.75 407.32 122.75C405.289 122.75 403.613 123.715 402.801 125.441L402.598 123.055H400.617C400.719 124.172 400.82 125.391 400.82 126.762V136.156H402.902V128.691C402.902 126.152 404.527 124.527 406.914 124.527C408.996 124.527 409.961 125.645 409.961 128.031V136.156H412.043V127.93ZM426.82 129.148C426.82 125.188 424.738 122.75 421.285 122.75C417.68 122.75 415.141 125.543 415.141 129.555C415.141 133.77 417.578 136.359 421.691 136.359C423.52 136.359 425.449 135.648 426.617 134.582L425.906 133.059C424.637 134.074 423.215 134.582 421.691 134.582C418.797 134.582 417.273 132.855 417.273 129.555H426.82V129.148ZM417.324 128.184C417.73 125.797 419.102 124.426 421.285 124.426C423.469 124.426 424.738 125.695 424.941 128.184H417.324ZM437.383 122.902C437.027 122.801 436.621 122.75 436.215 122.75C434.336 122.75 432.762 123.715 432.102 125.492L431.898 123.055H429.918C430.02 124.172 430.121 125.391 430.121 126.762V136.156H432.203V128.691C432.203 127.574 432.559 126.609 433.117 125.848C433.777 125.035 434.691 124.629 435.961 124.629C436.469 124.629 436.977 124.73 437.332 124.832L437.383 122.902Z" fill="#424242"/>
</g>
<defs>
<filter id="filter0_d" x="427.976" y="44.9121" width="43.208" height="55.088" filterUnits="userSpaceOnUse" color-interpolation-filters="sRGB">
<feFlood flood-opacity="0" result="BackgroundImageFix"/>
<feColorMatrix in="SourceAlpha" type="matrix" values="0 0 0 0 0 0 0 0 0 0 0 0 0 0 0 0 0 0 127 0" result="hardAlpha"/>
<feOffset dy="4"/>
<feGaussianBlur stdDeviation="2"/>
<feComposite in2="hardAlpha" operator="out"/>
<feColorMatrix type="matrix" values="0 0 0 0 0 0 0 0 0 0 0 0 0 0 0 0 0 0 0.25 0"/>
<feBlend mode="normal" in2="BackgroundImageFix" result="effect1_dropShadow"/>
<feBlend mode="normal" in="SourceGraphic" in2="effect1_dropShadow" result="shape"/>
</filter>
<filter id="filter1_d" x="331" y="50" width="99" height="49.9113" filterUnits="userSpaceOnUse" color-interpolation-filters="sRGB">
<feFlood flood-opacity="0" result="BackgroundImageFix"/>
<feColorMatrix in="SourceAlpha" type="matrix" values="0 0 0 0 0 0 0 0 0 0 0 0 0 0 0 0 0 0 127 0" result="hardAlpha"/>
<feOffset dy="4"/>
<feGaussianBlur stdDeviation="2"/>
<feComposite in2="hardAlpha" operator="out"/>
<feColorMatrix type="matrix" values="0 0 0 0 0 0 0 0 0 0 0 0 0 0 0 0 0 0 0.25 0"/>
<feBlend mode="normal" in2="BackgroundImageFix" result="effect1_dropShadow"/>
<feBlend mode="normal" in="SourceGraphic" in2="effect1_dropShadow" result="shape"/>
</filter>
<filter id="filter2_d" x="15.7998" y="44.9121" width="317.104" height="55.952" filterUnits="userSpaceOnUse" color-interpolation-filters="sRGB">
<feFlood flood-opacity="0" result="BackgroundImageFix"/>
<feColorMatrix in="SourceAlpha" type="matrix" values="0 0 0 0 0 0 0 0 0 0 0 0 0 0 0 0 0 0 127 0" result="hardAlpha"/>
<feOffset dy="4"/>
<feGaussianBlur stdDeviation="2"/>
<feComposite in2="hardAlpha" operator="out"/>
<feColorMatrix type="matrix" values="0 0 0 0 0 0 0 0 0 0 0 0 0 0 0 0 0 0 0.25 0"/>
<feBlend mode="normal" in2="BackgroundImageFix" result="effect1_dropShadow"/>
<feBlend mode="normal" in="SourceGraphic" in2="effect1_dropShadow" result="shape"/>
</filter>
<filter id="filter3_i" x="49.4141" y="117.012" width="387.969" height="29.0352" filterUnits="userSpaceOnUse" color-interpolation-filters="sRGB">
<feFlood flood-opacity="0" result="BackgroundImageFix"/>
<feBlend mode="normal" in="SourceGraphic" in2="BackgroundImageFix" result="shape"/>
<feColorMatrix in="SourceAlpha" type="matrix" values="0 0 0 0 0 0 0 0 0 0 0 0 0 0 0 0 0 0 127 0" result="hardAlpha"/>
<feOffset dy="4"/>
<feGaussianBlur stdDeviation="2"/>
<feComposite in2="hardAlpha" operator="arithmetic" k2="-1" k3="1"/>
<feColorMatrix type="matrix" values="0 0 0 0 0 0 0 0 0 0 0 0 0 0 0 0 0 0 0.25 0"/>
<feBlend mode="normal" in2="shape" result="effect1_innerShadow"/>
</filter>
<linearGradient id="paint0_linear" x1="369.911" y1="59.3623" x2="343.415" y2="88.8701" gradientUnits="userSpaceOnUse">
<stop stop-color="#29A5A9"/>
<stop offset="1" stop-color="#41676A"/>
</linearGradient>
<linearGradient id="paint1_linear" x1="390.696" y1="80.3966" x2="421.21" y2="55.4684" gradientUnits="userSpaceOnUse">
<stop stop-color="#29A5A9"/>
<stop offset="1" stop-color="#436164"/>
</linearGradient>
</defs>
</svg>
